<svg xmlns="http://www.w3.org/2000/svg" width="640" height="256" viewBox="0 0 640 256"><path style="fill:none;stroke:#3771c8;stroke-width:6;stroke-miterlimit:4;stroke-dasharray:none" d="M485 106c0 12.15-9.85 22-22 22s-22-9.85-22-22 9.85-22 22-22 22 9.85 22 22z" transform="translate(-344.117 -6.169)"/><path d="M110.26 888.66c-9.813.312-11.485 7.959-11.485 13.615v70.503c-2.348-7.368-18.912-12.078-20.163 2.913-1.064 12.753 7.47 33.273 15.963 46.684 5.004 7.902 18.958 14.254 45.788 13.984 44.774.667 57.807-30.985 48.832-80.35-2.025-11.134-19.229-6.22-25.46 0l-40.288 6.759v-60.493c0-6.084-3.374-13.925-13.187-13.614z" style="fill:#fff;fill-opacity:1;stroke:#000;stroke-width:7.01262282999999975;stroke-miterlimit:4;stroke-dasharray:none" transform="translate(8 -800.362)"/><path d="M123.434 944.675c3.083-6.814 20.375-7.852 23.554 0 9.58 23.668 0 62.627 0 62.627h-23.554z" style="fill:#fff;fill-opacity:1;stroke:#000;stroke-width:7.01262282999999975;stroke-miterlimit:4;stroke-dasharray:none" transform="translate(8 -800.362)"/><path d="M147.274 948.76c3.183-7.777 20.976-6.359 21.964 1.028 3.708 27.724 1.391 19.528 1.59 61.598h-23.554z" style="fill:#fff;fill-opacity:1;stroke:#000;stroke-width:7.01262282999999975;stroke-miterlimit:4;stroke-dasharray:none" transform="translate(8 -800.362)"/><path transform="matrix(.9958 .0916 -.0813 .99669 8 -800.362)" style="fill:#fff;fill-opacity:1;stroke:none" d="M193.763 952.558h64.493v47.373h-64.493z"/><path style="fill:#000;stroke:#fff;stroke-width:3.50631141999999985;stroke-linecap:butt;stroke-linejoin:miter;stroke-miterlimit:4;stroke-opacity:1;stroke-dasharray:none" d="M65.753 821.99v47.276l10.824-9.62 11.856 26.54 7.146-3.219-11.892-26.645H99.94L65.753 821.99z" transform="translate(-36 -792.362)"/><path style="fill:none;stroke:#3771c8;stroke-width:6;stroke-miterlimit:4;stroke-dasharray:none" d="M485 106c0 12.15-9.85 22-22 22s-22-9.85-22-22 9.85-22 22-22 22 9.85 22 22z" transform="translate(1)"/><g style="opacity:.1"><path d="M110.26 888.66c-9.813.312-11.485 7.959-11.485 13.615v70.503c-2.348-7.368-18.912-12.078-20.163 2.913-1.064 12.753 7.47 33.273 15.963 46.684 5.004 7.902 18.958 14.254 45.788 13.984 44.774.667 57.807-30.985 48.832-80.35-2.025-11.134-19.229-6.22-25.46 0l-40.288 6.759v-60.493c0-6.084-3.374-13.925-13.187-13.614z" style="fill:#fff;fill-opacity:1;stroke:#000;stroke-width:7.01262283;stroke-miterlimit:4;stroke-dasharray:none" transform="translate(253.875 -795.356)"/><path d="M123.434 944.675c3.083-6.814 20.375-7.852 23.554 0 9.58 23.668 0 62.627 0 62.627h-23.554z" style="fill:#fff;fill-opacity:1;stroke:#000;stroke-width:7.01262283;stroke-miterlimit:4;stroke-dasharray:none" transform="translate(253.875 -795.356)"/><path d="M147.274 948.76c3.183-7.777 20.976-6.359 21.964 1.028 3.708 27.724 1.391 19.528 1.59 61.598h-23.554z" style="fill:#fff;fill-opacity:1;stroke:#000;stroke-width:7.01262283;stroke-miterlimit:4;stroke-dasharray:none" transform="translate(253.875 -795.356)"/><path transform="matrix(.9958 .0916 -.0813 .99669 253.875 -795.356)" style="fill:#fff;fill-opacity:1;stroke:none" d="M193.763 952.558h64.493v47.373h-64.493z"/><path style="fill:#000;stroke:#fff;stroke-width:3.50631142;stroke-linecap:butt;stroke-linejoin:miter;stroke-miterlimit:4;stroke-opacity:1;stroke-dasharray:none" d="M225.628 830.997v47.276l10.824-9.62 11.856 26.54 7.146-3.22-11.892-26.645h16.253l-34.187-34.33z" transform="translate(50 -796.362)"/></g><g style="opacity:.2"><path d="M110.26 888.66c-9.813.312-11.485 7.959-11.485 13.615v70.503c-2.348-7.368-18.912-12.078-20.163 2.913-1.064 12.753 7.47 33.273 15.963 46.684 5.004 7.902 18.958 14.254 45.788 13.984 44.774.667 57.807-30.985 48.832-80.35-2.025-11.134-19.229-6.22-25.46 0l-40.288 6.759v-60.493c0-6.084-3.374-13.925-13.187-13.614z" style="fill:#fff;fill-opacity:1;stroke:#000;stroke-width:7.01262283;stroke-miterlimit:4;stroke-dasharray:none" transform="translate(297.316 -796.057)"/><path d="M123.434 944.675c3.083-6.814 20.375-7.852 23.554 0 9.58 23.668 0 62.627 0 62.627h-23.554z" style="fill:#fff;fill-opacity:1;stroke:#000;stroke-width:7.01262283;stroke-miterlimit:4;stroke-dasharray:none" transform="translate(297.316 -796.057)"/><path d="M147.274 948.76c3.183-7.777 20.976-6.359 21.964 1.028 3.708 27.724 1.391 19.528 1.59 61.598h-23.554z" style="fill:#fff;fill-opacity:1;stroke:#000;stroke-width:7.01262283;stroke-miterlimit:4;stroke-dasharray:none" transform="translate(297.316 -796.057)"/><path transform="matrix(.9958 .0916 -.0813 .99669 297.316 -796.057)" style="fill:#fff;fill-opacity:1;stroke:none" d="M193.763 952.558h64.493v47.373h-64.493z"/><path style="fill:#000;stroke:#fff;stroke-width:3.50631142;stroke-linecap:butt;stroke-linejoin:miter;stroke-miterlimit:4;stroke-opacity:1;stroke-dasharray:none" d="M225.628 830.997v47.276l10.824-9.62 11.856 26.54 7.146-3.22-11.892-26.645h16.253l-34.187-34.33z" transform="translate(93.44 -797.063)"/></g><path d="M110.26 888.66c-9.813.312-11.485 7.959-11.485 13.615v70.503c-2.348-7.368-18.912-12.078-20.163 2.913-1.064 12.753 7.47 33.273 15.963 46.684 5.004 7.902 18.958 14.254 45.788 13.984 44.774.667 57.807-30.985 48.832-80.35-2.025-11.134-19.229-6.22-25.46 0l-40.288 6.759v-60.493c0-6.084-3.374-13.925-13.187-13.614z" style="fill:#fff;fill-opacity:1;stroke:#000;stroke-width:7.01262283;stroke-miterlimit:4;stroke-dasharray:none" transform="translate(352.808 -794.51)"/><path d="M123.434 944.675c3.083-6.814 20.375-7.852 23.554 0 9.58 23.668 0 62.627 0 62.627h-23.554z" style="fill:#fff;fill-opacity:1;stroke:#000;stroke-width:7.01262283;stroke-miterlimit:4;stroke-dasharray:none" transform="translate(352.808 -794.51)"/><path d="M147.274 948.76c3.183-7.777 20.976-6.359 21.964 1.028 3.708 27.724 1.391 19.528 1.59 61.598h-23.554z" style="fill:#fff;fill-opacity:1;stroke:#000;stroke-width:7.01262283;stroke-miterlimit:4;stroke-dasharray:none" transform="translate(352.808 -794.51)"/><path transform="matrix(.9958 .0916 -.0813 .99669 352.808 -794.51)" style="fill:#fff;fill-opacity:1;stroke:none" d="M193.763 952.558h64.493v47.373h-64.493z"/><path style="fill:#000;stroke:#fff;stroke-width:3.50631142;stroke-linecap:butt;stroke-linejoin:miter;stroke-miterlimit:4;stroke-opacity:1;stroke-dasharray:none" d="M311.907 830.265v47.275l10.823-9.62 11.857 26.54 7.145-3.219-11.891-26.645h16.252l-34.186-34.331z" transform="translate(50 -796.362)"/><path d="M370.95 886.787v9.56H304v9.998h66.949v9.56l9.587-7.259 9.588-7.286-9.588-7.287-9.587-7.286z" style="fill:#3771c8;fill-opacity:1;stroke:none" transform="translate(50 -796.362)"/><path d="M0 796.362v20h20v-20H0zm9.281 4.5h1.688v9.375h2.094v1.625H6.936v-1.625h2.25v-7.5l-2.156 1.625v-1.719l2.25-1.78z" style="opacity:.5;fill:#000;fill-opacity:1;stroke:none" transform="translate(0 -796.362)"/><path style="opacity:.5;fill:#000;stroke:none" d="M239 816.416h2.464v238.107H239z" transform="translate(17 -796.416)"/><path style="opacity:.5;fill:#000;fill-opacity:1;stroke:none" d="M239 796.416v20h20v-20h-20zm10 4.406a3.6 3.6 0 0 1 1.281.219c.375.135.683.328.938.593.26.266.463.615.594 1 .135.38.218.792.218 1.282 0 .515-.083.99-.25 1.406a5.264 5.264 0 0 1-.656 1.156c-.26.35-.557.693-.875 1l-.906.875c-.302.292-.594.61-.844.906a3.017 3.017 0 0 0-.531.938h4.187v1.812h-6.312v-1.53a6.825 6.825 0 0 1 .75-1.47c.297-.442.614-.854.937-1.218.323-.37.62-.72.938-1.032.317-.317.625-.614.875-.906a4.56 4.56 0 0 0 .594-.875c.161-.297.25-.635.25-.969 0-.49-.11-.828-.313-1.062-.198-.234-.484-.375-.875-.375-.385 0-.672.151-.875.406-.198.25-.344.62-.406 1.125l-1.813-.125a5.34 5.34 0 0 1 .282-1.219c.135-.38.317-.713.562-1 .245-.286.537-.526.906-.687.37-.167.828-.25 1.344-.25z" transform="translate(17 -796.416)"/></svg>