<svg xmlns="http://www.w3.org/2000/svg" width="64" height="64" viewBox="0 0 64 64"><g transform="translate(-33.342 -44.364) scale(.19138)"><path style="fill:#000;fill-opacity:1;stroke:#000;stroke-width:.00956892;stroke-linecap:round;stroke-linejoin:miter;stroke-miterlimit:4;stroke-opacity:1;stroke-dasharray:none;stroke-dashoffset:0" d="M4 .656c-2.215 0-4 1.927-4 4.313V48.03c0 2.386 1.785 4.282 4 4.282h56c2.215 0 4-1.896 4-4.282V4.97c0-2.386-1.785-4.313-4-4.313H4zm10.313 10.938h35.374c1.4 0 2.532 1.093 2.532 2.469v24.843c0 1.376-1.132 2.469-2.532 2.469H14.313c-1.4 0-2.532-1.093-2.532-2.469V14.063c0-1.376 1.132-2.47 2.531-2.47z" transform="translate(174.22 231.813) scale(5.22525)"/><rect ry="18" rx="18" y="524.187" x="244.268" height="38.636" width="197.179" style="fill:#000;fill-opacity:1;stroke:#000;stroke-width:.05000001;stroke-linecap:round;stroke-linejoin:miter;stroke-miterlimit:4;stroke-opacity:1;stroke-dasharray:none;stroke-dashoffset:0"/></g></svg>