<svg xmlns="http://www.w3.org/2000/svg" width="64" height="64" viewBox="0 0 64 64"><g transform="translate(-16.868 -118.574) scale(.18109)"><rect ry="18" rx="18" y="893.791" x="263.714" height="60" width="182.857" style="fill:#000;fill-opacity:1;stroke:none"/><path d="M128.156 709.221a17.986 17.986 0 0 0-12.75 5.281l-16.969 16.97a17.939 17.939 0 0 0 0 25.437L173 831.502l-74.563 74.563a17.976 17.976 0 0 0 0 25.469l16.97 16.968a17.976 17.976 0 0 0 25.468 0L244.719 844.66c3.63-3.63 5.357-8.42 5.25-13.157.116-4.746-1.612-9.518-5.25-13.156L140.875 714.502a17.915 17.915 0 0 0-12.719-5.28z" style="fill:#000;fill-opacity:1;stroke:none"/></g></svg>