<svg xmlns="http://www.w3.org/2000/svg" width="64" height="64" viewBox="0 0 64 64"><g style="stroke:#fff"><g style="stroke:#fff"><path style="opacity:1;fill:none;fill-opacity:1;stroke:#fff;stroke-width:7;stroke-linecap:butt;stroke-linejoin:round;stroke-miterlimit:4;stroke-dasharray:none;stroke-dashoffset:0;stroke-opacity:1" d="M2.65 27.905a19.125 19.125 0 0 1 19.126 0 19.125 19.125 0 0 1 9.562 16.562" transform="rotate(-30 -.47 .924)"/><path style="opacity:1;fill:#000;fill-opacity:1;stroke:#fff;stroke-width:21.38647461;stroke-linecap:butt;stroke-linejoin:miter;stroke-miterlimit:4;stroke-dasharray:none;stroke-dashoffset:0;stroke-opacity:1" d="M48.013 34.996h9.974L53 43.633z" transform="matrix(.29472 -.17016 .1574 .27263 28.935 24.096)"/></g><g style="stroke:#fff"><path style="opacity:1;fill:none;fill-opacity:1;stroke:#fff;stroke-width:7;stroke-linecap:butt;stroke-linejoin:round;stroke-miterlimit:4;stroke-dasharray:none;stroke-dashoffset:0;stroke-opacity:1" d="M2.65 27.905a19.125 19.125 0 0 1 19.126 0 19.125 19.125 0 0 1 9.562 16.562" transform="rotate(150 23.673 40.7)"/><path style="opacity:1;fill:#000;fill-opacity:1;stroke:#fff;stroke-width:21.38647461;stroke-linecap:butt;stroke-linejoin:miter;stroke-miterlimit:4;stroke-dasharray:none;stroke-dashoffset:0;stroke-opacity:1" d="M48.013 34.996h9.974L53 43.633z" transform="matrix(-.29472 .17016 -.1574 -.27263 35.065 39.904)"/></g></g></svg>