<svg xmlns="http://www.w3.org/2000/svg" width="256" height="256" viewBox="0 0 256 256"><g style="opacity:.25"><path d="m28.031 196.813-2 5.25a22.529 22.529 0 0 0-5.312 2.218L15 202.562 10.562 207l1.72 5.719a22.529 22.529 0 0 0-2.22 5.312l-5.25 2v7.938l5.25 2a22.529 22.529 0 0 0 2.22 5.312L10.561 241 15 245.438l5.719-1.72a22.529 22.529 0 0 0 5.312 2.22l2 5.25h7.938l2-5.25a22.529 22.529 0 0 0 5.312-2.22L49 245.439 53.438 241l-1.72-5.719a22.529 22.529 0 0 0 2.22-5.312l5.25-2v-7.939l-5.25-2a22.529 22.529 0 0 0-2.22-5.312L53.439 207 49 202.562l-5.719 1.72a22.529 22.529 0 0 0-5.312-2.22l-2-5.25zM32 208.5c8.552 0 15.5 6.948 15.5 15.5s-6.948 15.5-15.5 15.5-15.5-6.948-15.5-15.5 6.948-15.5 15.5-15.5z" style="fill:#000;stroke:none" transform="matrix(4 0 0 4 0 -768)"/><path style="fill:#000;stroke:none" d="M43.164 224a11.164 11.164 0 1 1-22.327 0 11.164 11.164 0 1 1 22.327 0z" transform="matrix(4 0 0 4 0 -768)"/></g></svg>