<svg xmlns="http://www.w3.org/2000/svg" width="236" height="186" viewBox="0 0 236 186"><path style="fill:#fff;stroke:#000;stroke-width:16;stroke-linecap:round;stroke-linejoin:round;stroke-miterlimit:4;stroke-opacity:1;stroke-dasharray:none" d="M17 853.362h220v170H17z" transform="translate(-9 -845.375)"/><g style="opacity:.5"><path style="fill:#999;stroke:#000;stroke-width:1;stroke-miterlimit:4;stroke-opacity:1;stroke-dasharray:none" d="M16 963.612h204v72.75H16z" transform="translate(0 -866.375)"/><g transform="translate(-7.75 -826.688)"><rect style="fill:#ccc;fill-opacity:1;stroke:none" width="12" height="12" x="31.25" y="931.425" rx="2" ry="2.233"/><rect style="fill:#ccc;fill-opacity:1;stroke:none" width="12" height="12" x="47.25" y="931.425" rx="2" ry="2.233"/><rect style="fill:#ccc;fill-opacity:1;stroke:none" width="12" height="12" x="63.25" y="931.425" rx="2" ry="2.233"/><rect style="fill:#ccc;fill-opacity:1;stroke:none" width="12" height="12" x="79.25" y="931.425" rx="2" ry="2.233"/><rect style="fill:#ccc;fill-opacity:1;stroke:none" width="12" height="12" x="95.25" y="931.425" rx="2" ry="2.233"/><rect style="fill:#ccc;fill-opacity:1;stroke:none" width="12" height="12" x="111.25" y="931.425" rx="2" ry="2.233"/><rect style="fill:#ccc;fill-opacity:1;stroke:none" width="12" height="12" x="127.25" y="931.425" rx="2" ry="2.233"/><rect style="fill:#ccc;fill-opacity:1;stroke:none" width="12" height="12" x="143.25" y="931.425" rx="2" ry="2.233"/><rect style="fill:#ccc;fill-opacity:1;stroke:none" width="12" height="12" x="159.25" y="931.425" rx="2" ry="2.233"/><rect style="fill:#ccc;fill-opacity:1;stroke:none" width="12" height="12" x="175.25" y="931.425" rx="2" ry="2.233"/><rect style="fill:#ccc;fill-opacity:1;stroke:none" width="27.75" height="12" x="191.25" y="931.425" rx="2" ry="2.233"/><rect style="fill:#ccc;fill-opacity:1;stroke:none" width="12" height="12" x="31.25" y="947.425" rx="2" ry="2.233"/><rect style="fill:#ccc;fill-opacity:1;stroke:none" width="12" height="12" x="47.25" y="947.425" rx="2" ry="2.233"/><rect style="fill:#ccc;fill-opacity:1;stroke:none" width="12" height="12" x="63.25" y="947.425" rx="2" ry="2.233"/><rect style="fill:#ccc;fill-opacity:1;stroke:none" width="12" height="12" x="79.25" y="947.425" rx="2" ry="2.233"/><rect style="fill:#ccc;fill-opacity:1;stroke:none" width="12" height="12" x="95.25" y="947.425" rx="2" ry="2.233"/><rect style="fill:#ccc;fill-opacity:1;stroke:none" width="12" height="12" x="111.25" y="947.425" rx="2" ry="2.233"/><rect style="fill:#ccc;fill-opacity:1;stroke:none" width="12" height="12" x="127.25" y="947.425" rx="2" ry="2.233"/><rect style="fill:#ccc;fill-opacity:1;stroke:none" width="12" height="12" x="143.25" y="947.425" rx="2" ry="2.233"/><rect style="fill:#ccc;fill-opacity:1;stroke:none" width="12" height="12" x="159.25" y="947.425" rx="2" ry="2.233"/><rect style="fill:#ccc;fill-opacity:1;stroke:none" width="12" height="12" x="175.25" y="947.425" rx="2" ry="2.233"/><rect style="fill:#ccc;fill-opacity:1;stroke:none" width="12" height="12" x="191.25" y="947.425" rx="2" ry="2.233"/><path transform="translate(-1.25 777.675)" d="M210.5 169.75c-1.108 0-2 .982-2 2.219v13.781h-14c-1.108 0-2 .982-2 2.219v7.562c0 1.237.892 2.219 2 2.219h23.75c1.108 0 2-.982 2-2.219-.008-7.917-.033-16.554-.031-23.562 0-1.237-.892-2.219-2-2.219z" style="fill:#ccc;fill-opacity:1;stroke:none"/><rect style="fill:#ccc;fill-opacity:1;stroke:none" width="12" height="12" x="31.25" y="963.425" rx="2" ry="2.233"/><rect style="fill:#ccc;fill-opacity:1;stroke:none" width="12" height="12" x="47.25" y="963.425" rx="2" ry="2.233"/><rect style="fill:#ccc;fill-opacity:1;stroke:none" width="12" height="12" x="63.25" y="963.425" rx="2" ry="2.233"/><rect style="fill:#ccc;fill-opacity:1;stroke:none" width="12" height="12" x="79.25" y="963.425" rx="2" ry="2.233"/><rect style="fill:#ccc;fill-opacity:1;stroke:none" width="12" height="12" x="95.25" y="963.425" rx="2" ry="2.233"/><rect style="fill:#ccc;fill-opacity:1;stroke:none" width="12" height="12" x="111.25" y="963.425" rx="2" ry="2.233"/><rect style="fill:#ccc;fill-opacity:1;stroke:none" width="12" height="12" x="127.25" y="963.425" rx="2" ry="2.233"/><rect style="fill:#ccc;fill-opacity:1;stroke:none" width="12" height="12" x="143.25" y="963.425" rx="2" ry="2.233"/><rect style="fill:#ccc;fill-opacity:1;stroke:none" width="12" height="12" x="159.25" y="963.425" rx="2" ry="2.233"/><rect style="fill:#ccc;fill-opacity:1;stroke:none" width="12" height="12" x="175.25" y="963.425" rx="2" ry="2.233"/><rect style="fill:#ccc;fill-opacity:1;stroke:none" width="12" height="12" x="31.25" y="979.425" rx="2" ry="2.233"/><rect style="fill:#ccc;fill-opacity:1;stroke:none" width="12" height="12" x="47.25" y="979.425" rx="2" ry="2.233"/><rect style="fill:#ccc;fill-opacity:1;stroke:none" width="12" height="12" x="63.25" y="979.425" rx="2" ry="2.233"/><rect style="fill:#ccc;fill-opacity:1;stroke:none" width="91.75" height="12" x="79.25" y="979.425" rx="2" ry="2.233"/><rect style="fill:#ccc;fill-opacity:1;stroke:none" width="12" height="12" x="175.25" y="979.425" rx="2" ry="2.233"/><rect style="fill:#ccc;fill-opacity:1;stroke:none" width="12" height="12" x="191.25" y="979.425" rx="2" ry="2.233"/><rect style="fill:#ccc;fill-opacity:1;stroke:none" width="12" height="12" x="207.25" y="979.425" rx="2" ry="2.233"/></g></g><path style="opacity:.5;fill:#fff;fill-opacity:1;stroke:none" d="M235 143.5a6.5 6.5 0 1 1-13 0 6.5 6.5 0 0 1 13 0z" transform="translate(99.042 11.93) scale(.56486)"/></svg>