<svg xmlns="http://www.w3.org/2000/svg" width="64" height="64" viewBox="0 0 64 64"><path style="fill:#fff;stroke:none" d="M57.322 8.871h7.518v22.135h-7.518z" transform="translate(-15.013 -2.006)"/><path transform="rotate(90 -6.504 -8.51)" style="fill:#fff;stroke:none" d="M16.179-72.149h7.518v22.135h-7.518z"/><g style="stroke-width:1.27789712"><g style="stroke-width:1.27789712;fill:#fff"><path style="color:#000;font-style:normal;font-variant:normal;font-weight:400;font-stretch:normal;font-size:medium;line-height:normal;font-family:sans-serif;font-variant-ligatures:normal;font-variant-position:normal;font-variant-caps:normal;font-variant-numeric:normal;font-variant-alternates:normal;font-feature-settings:normal;text-indent:0;text-align:start;text-decoration:none;text-decoration-line:none;text-decoration-style:solid;text-decoration-color:#000;letter-spacing:normal;word-spacing:normal;text-transform:none;writing-mode:lr-tb;direction:ltr;text-orientation:mixed;dominant-baseline:auto;baseline-shift:baseline;text-anchor:start;white-space:normal;shape-padding:0;clip-rule:nonzero;display:inline;overflow:visible;visibility:visible;opacity:1;isolation:auto;mix-blend-mode:normal;color-interpolation:sRGB;color-interpolation-filters:linearRGB;solid-color:#000;solid-opacity:1;vector-effect:none;fill:#fff;fill-opacity:1;fill-rule:nonzero;stroke:none;stroke-width:2.55579424;stroke-linecap:round;stroke-linejoin:miter;stroke-miterlimit:4;stroke-dasharray:none;stroke-dashoffset:0;stroke-opacity:1;color-rendering:auto;image-rendering:auto;shape-rendering:auto;text-rendering:auto;enable-background:accumulate" d="M31.773 43.098c4.756 0 9.723.71 13.377 2.35 3.654 1.639 5.918 4.007 5.918 7.69.001 4.273-.042 4.398-.052 7.854h-38.03c-.004-2.044-.013-3.433-.025-3.656-.016-.284-.03-.443-.03-4.197 0-3.117 2.172-5.546 5.727-7.315 3.556-1.768 8.396-2.726 13.115-2.726z" transform="matrix(.7825 0 0 .78257 .438 15.647)"/><path style="color:#000;font-style:normal;font-variant:normal;font-weight:400;font-stretch:normal;font-size:medium;line-height:normal;font-family:sans-serif;font-variant-ligatures:normal;font-variant-position:normal;font-variant-caps:normal;font-variant-numeric:normal;font-variant-alternates:normal;font-feature-settings:normal;text-indent:0;text-align:start;text-decoration:none;text-decoration-line:none;text-decoration-style:solid;text-decoration-color:#000;letter-spacing:normal;word-spacing:normal;text-transform:none;writing-mode:lr-tb;direction:ltr;text-orientation:mixed;dominant-baseline:auto;baseline-shift:baseline;text-anchor:start;white-space:normal;shape-padding:0;clip-rule:nonzero;display:inline;overflow:visible;visibility:visible;opacity:1;isolation:auto;mix-blend-mode:normal;color-interpolation:sRGB;color-interpolation-filters:linearRGB;solid-color:#000;solid-opacity:1;vector-effect:none;fill:#fff;fill-opacity:1;fill-rule:evenodd;stroke:none;stroke-width:2.55579424;stroke-linecap:butt;stroke-linejoin:miter;stroke-miterlimit:4;stroke-dasharray:none;stroke-dashoffset:0;stroke-opacity:1;color-rendering:auto;image-rendering:auto;shape-rendering:auto;text-rendering:auto;enable-background:accumulate" d="M32 16.268c6.651 0 12.021 5.37 12.021 12.021 0 6.651-5.37 12.024-12.021 12.024a12.008 12.008 0 0 1-12.021-12.024c0-6.651 5.37-12.021 12.021-12.021z" transform="matrix(.7825 0 0 .78257 .438 15.647)"/></g><g style="stroke-width:1.27789712;fill:#fff"><path style="fill:#fff;fill-opacity:1;stroke:#000;stroke-width:.02206861;stroke-linecap:round;stroke-linejoin:miter;stroke-miterlimit:4;stroke-dashoffset:0;stroke-opacity:1" d="M16.531 41.025c-7.103 0-14.523 2.83-14.523 8.082 0 5.5.045.64.045 6.48h8.898c-.008-.523-.02-.31-.02-2.448 0-4.059 2.898-7.147 6.837-9.106 1.87-.93 4.003-1.631 6.255-2.119-2.324-.617-4.947-.889-7.492-.889z" transform="matrix(.7825 0 0 .78257 .438 15.647)"/><path style="fill:#fff;fill-rule:evenodd;stroke:none;stroke-width:1.27789712" d="M16.697 21.389a9.53 9.531 0 0 0-9.531 9.53 9.53 9.531 0 0 0 9.531 9.532 9.53 9.531 0 0 0 5.74-1.933c-2.736-2.561-4.458-6.194-4.458-10.229 0-2.328.58-4.52 1.587-6.455a9.53 9.531 0 0 0-2.869-.445z" transform="matrix(.7825 0 0 .78257 .438 15.647)"/></g><g style="stroke-width:1.27789712;fill:#fff"><path style="fill:#fff;fill-opacity:1;stroke:#000;stroke-width:.02206861;stroke-linecap:round;stroke-linejoin:miter;stroke-miterlimit:4;stroke-dashoffset:0;stroke-opacity:1" d="M47.139 41.025c-2.3 0-4.63.304-6.733.883 1.98.4 3.87.954 5.563 1.713 4.066 1.825 7.099 4.976 7.1 9.518 0 1.373-.011 1.757-.018 2.449h8.896c0-3.771.046-2.949.045-6.48 0-6.02-7.75-8.083-14.853-8.083z" transform="matrix(.7825 0 0 .78257 .438 15.647)"/><path style="fill:#fff;fill-rule:evenodd;stroke:none;stroke-width:1.27789712" d="M47.303 21.389a9.53 9.531 0 0 0-2.865.453 13.922 13.922 0 0 1 1.583 6.447c0 4.034-1.721 7.666-4.457 10.227a9.53 9.531 0 0 0 5.739 1.935 9.53 9.531 0 0 0 9.531-9.531 9.53 9.531 0 0 0-9.531-9.531z" transform="matrix(.7825 0 0 .78257 .438 15.647)"/></g></g></svg>