<svg xmlns="http://www.w3.org/2000/svg" width="64" height="64"><path d="M8.813 0A1.813 1.813 0 0 0 7 1.814v60.373C7 63.188 7.812 64 8.813 64h48.374C58.188 64 59 63.188 59 62.187V13.89c0-.482-.19-.943-.531-1.284L46.375.531c-.34-.34-.8-.53-1.281-.531H8.812zm37.49 3.02 10.885 10.867H46.303V3.02zM32.422 12a1.642 1.642 0 0 1 1.258.586L50.459 32.6a1.642 1.642 0 0 1-1.258 2.697h-8.84v17.98a1.642 1.642 0 0 1-1.64 1.643H26.623a1.642 1.642 0 0 1-1.643-1.643v-17.98h-9.337a1.642 1.642 0 0 1-1.258-2.697l16.78-20.014A1.642 1.642 0 0 1 32.421 12z" style="fill:#fff;stroke-width:1.35948"/></svg>