<svg xmlns="http://www.w3.org/2000/svg" width="64" height="64" viewBox="0 0 64 64"><path style="fill:#fff;fill-opacity:1;stroke:#000;stroke-width:.05000003;stroke-linecap:round;stroke-linejoin:miter;stroke-miterlimit:4;stroke-opacity:1;stroke-dasharray:none;stroke-dashoffset:0" d="M328.653 258.485c-8.817 0-15.841 13.705-17.413 31.686H195.06c-11.575 0-20.838 10.086-20.838 22.551v224.94c0 12.466 9.263 22.266 20.838 22.266h292.594c11.575 0 21.124-9.8 21.124-22.265v-224.94c0-8.152.026-54.131-18.84-54.238zm-79.643 88.778h184.977c7.313 0 13.131 5.656 13.131 12.845v129.883c0 7.19-5.818 12.846-13.131 12.846H249.01c-7.313 0-13.13-5.657-13.13-12.846V360.108c0-7.189 5.817-12.845 13.13-12.845z" transform="translate(-19.073 1.734) scale(.10947)"/><path style="fill:#fff;stroke:none" d="M57.322 8.871h7.518v22.135h-7.518z" transform="translate(-15.013 -2.006)"/><path transform="rotate(90 -6.504 -8.51)" style="fill:#fff;stroke:none" d="M16.179-72.149h7.518v22.135h-7.518z"/></svg>