<svg xmlns="http://www.w3.org/2000/svg" width="64" height="64" viewBox="0 0 64 64"><path style="fill:#fff;stroke:none" d="m28.031 4.813-2 5.25a22.529 22.529 0 0 0-5.312 2.218L15 10.562 10.562 15l1.72 5.719a22.529 22.529 0 0 0-2.22 5.312l-5.25 2v7.938l5.25 2a22.529 22.529 0 0 0 2.22 5.312L10.561 49 15 53.438l5.719-1.72a22.529 22.529 0 0 0 5.312 2.22l2 5.25h7.938l2-5.25a22.529 22.529 0 0 0 5.312-2.22L49 53.439 53.438 49l-1.72-5.719a22.529 22.529 0 0 0 2.22-5.312l5.25-2V28.03l-5.25-2a22.529 22.529 0 0 0-2.22-5.312L53.439 15 49 10.562l-5.719 1.72a22.529 22.529 0 0 0-5.312-2.22l-2-5.25zM32 16.5c8.552 0 15.5 6.948 15.5 15.5S40.552 47.5 32 47.5 16.5 40.552 16.5 32 23.448 16.5 32 16.5z"/><path transform="translate(.31 .77)" d="M42.854 31.23a11.164 11.164 0 1 1-22.327 0 11.164 11.164 0 1 1 22.327 0z" style="fill:#fff;stroke:none"/></svg>