<svg xmlns="http://www.w3.org/2000/svg" width="64" height="64" viewBox="0 0 64 64"><path style="fill:#fff;fill-opacity:1;stroke:none" d="M31.844 9.594c-9.553.074-13.219-.126-13.219 4.656v15a2.716 2.716 0 0 0 2.719 2.719H41.75a2.716 2.716 0 0 0 2.719-2.719v-15c0-3.789-3.073-4.73-12.625-4.656zm-.407 3.719c4.165-.02 4.965 2.797 4.407 4.718-.559 1.922-2.906 1.856-4.375 1.844-1.47-.012-3.553.155-4.188-1.844-.635-1.998-.008-4.7 4.157-4.718z" transform="translate(.453)"/><path style="fill:#fff;fill-opacity:1;stroke:none" d="M77.702 20.455h7.305s.104 17.639 0 17.86c-.105.222-2.182 1.792-3.074 1.725-.892-.068-4.13-1.37-4.231-1.724-.101-.355 1.51-2.698 1.498-3.194-.011-.497-1.522-2.735-1.498-3.381.023-.646 1.492-2.338 1.498-2.727.006-.39-1.548-2.375-1.498-2.805.05-.43 1.57-2.067 1.498-2.497-.071-.43-1.498-3.257-1.498-3.257z" transform="translate(-94.13 -2.653) scale(1.54998)"/></svg>