<svg xmlns="http://www.w3.org/2000/svg" width="64" height="64" viewBox="0 0 64 64"><g transform="translate(-31.663 -41) scale(.19138)" style="fill:#000"><rect ry="10" rx="10" y="359.24" x="196.801" height="158.064" width="184.408" style="fill:#000;fill-opacity:1;stroke:none"/><path d="M391.226 235.731c-36.12 0-65.643 29.524-65.643 65.643v69.887c0 .55-.013 1.087 0 1.633h31.352c-.026-.564 0-1.06 0-1.633v-69.887c0-19.281 15.01-34.291 34.29-34.291h4.573c19.28 0 34.29 15.01 34.29 34.29v69.888c0 .573.027 1.069 0 1.633h31.352c.014-.546 0-1.083 0-1.633v-69.887c0-36.12-29.523-65.643-65.642-65.643z" style="font-size:medium;font-style:normal;font-variant:normal;font-weight:400;font-stretch:normal;text-indent:0;text-align:start;text-decoration:none;line-height:normal;letter-spacing:normal;word-spacing:normal;text-transform:none;direction:ltr;block-progression:tb;writing-mode:lr-tb;text-anchor:start;baseline-shift:baseline;color:#000;fill:#000;fill-opacity:1;stroke:none;stroke-width:31.37258148;marker:none;visibility:visible;display:inline;overflow:visible;enable-background:accumulate;font-family:Sans;-inkscape-font-specification:Sans"/></g></svg>