<svg xmlns="http://www.w3.org/2000/svg" width="64" height="64" viewBox="0 0 64 64"><path style="fill:#fff;fill-opacity:1;stroke:#000;stroke-width:.00547374;stroke-linecap:round;stroke-linejoin:miter;stroke-miterlimit:4;stroke-dasharray:none;stroke-dashoffset:0;stroke-opacity:1" d="M2.094 1.486C.934 1.486 0 2.496 0 3.744v42.66c0 1.249.935 2.242 2.094 2.242h.302V5.17l19.272 14v29.476h7.9c1.16 0 2.094-.991 2.094-2.24V3.744c0-1.248-.934-2.258-2.094-2.258H2.094z"/><path d="M208.19 52.448c-10.236 0-18.485 9.336-18.485 20.894V468.33c0 11.558 8.249 20.743 18.486 20.743h242.637c10.237 0 18.486-9.185 18.486-20.743V73.342c0-11.558-8.249-20.894-18.486-20.894z" style="fill:none;fill-opacity:1;stroke:#fff;stroke-width:47.44955063;stroke-linecap:round;stroke-linejoin:miter;stroke-miterlimit:4;stroke-opacity:1;stroke-dasharray:none;stroke-dashoffset:0" transform="matrix(.07096 .05263 0 .10015 -11.461 -11.512)"/><path transform="matrix(.64819 .48075 0 .91482 .415 -3.146)" d="M26.5 30.125a1.625 1.625 0 1 1-3.25 0 1.625 1.625 0 0 1 3.25 0z" style="fill:#fff;fill-opacity:1;stroke:#fff;stroke-width:5.19446087;stroke-linecap:round;stroke-linejoin:round;stroke-miterlimit:4;stroke-opacity:1;stroke-dasharray:none"/><path transform="rotate(90 -12.504 -.51)" style="fill:#fff;stroke:none" d="M16.179-72.149h7.518v12.885h-7.518z"/><path style="fill:#fff;fill-opacity:1;stroke:none" d="M48.023 17.5 29.988 27.913V7.087z" transform="matrix(-.6396 0 0 1 68.454 14.5)"/></svg>