<svg xmlns="http://www.w3.org/2000/svg" width="64" height="64" viewBox="0 0 64 64"><path style="fill:#fff;fill-opacity:1;stroke:#000;stroke-width:.09023736;stroke-linecap:round;stroke-linejoin:miter;stroke-miterlimit:4;stroke-opacity:1;stroke-dashoffset:0" d="M474.341 504.195c.005 31.957-.398 24.504-.398 58.628H208.914c0-52.862-.398-8.867-.398-58.628 0-47.522 67.134-73.133 131.412-73.133 64.277 0 134.405 18.656 134.413 73.133z" transform="translate(-19.633 -7.276) scale(.12552)"/><path style="fill:#fff;fill-rule:evenodd;stroke:none" d="M48.002 28.63c0 9.116-7.39 16.506-16.506 16.506S14.99 37.746 14.99 28.63s7.39-16.506 16.506-16.506 16.506 7.39 16.506 16.506z" transform="translate(2.566 16.574) scale(.65589)"/><path style="fill:#fff;stroke:none" d="M57.322 8.871h7.518v22.135h-7.518z" transform="translate(-15.013 -2.006)"/><path transform="rotate(90 -6.504 -8.51)" style="fill:#fff;stroke:none" d="M16.179-72.149h7.518v22.135h-7.518z"/></svg>