<svg xmlns="http://www.w3.org/2000/svg" width="64" height="64" viewBox="0 0 64 64"><path d="M195 553.515c-21.945 0-40.118 15.552-44.156 36.281h-71c-5.936 0-10.719 6.136-10.719 13.781v38.125c0 7.646 4.783 13.813 10.719 13.813h71.969c5.466 18.69 22.683 32.281 43.187 32.281h48.406V657.64h44.313v-20h-44.313v-34h44.313v-20h-44.313v-23.125c0-2.382.21-4.72.563-7H195zm163.69 0c21.945 0 40.117 15.552 44.156 36.281h71c5.936 0 10.719 6.136 10.719 13.781v38.125c0 7.645-4.783 13.813-10.719 13.813h-71.969c-5.467 18.69-22.683 32.281-43.187 32.281h-48.407V560.515c0-2.382-.209-4.72-.562-7h48.969z" style="fill:#000;stroke:none" transform="translate(-10.649 -63.614) scale(.15405)"/></svg>