<svg xmlns="http://www.w3.org/2000/svg" width="64" height="64"><g style="stroke-width:1.04766"><g style="font-style:normal;font-weight:400;font-size:142.558px;line-height:100%;font-family:Sans;letter-spacing:0;word-spacing:0;fill:#000;fill-opacity:1;stroke:none;stroke-width:3.20748px;stroke-linecap:butt;stroke-linejoin:miter;stroke-opacity:1"><path d="M169.301 354.693c-60.575-41.36-30.288-20.68 0 0zm-.627 90.839c-60.157-101.919-30.079-50.96 0 0z" aria-label="!" style="font-style:normal;font-variant:normal;font-weight:900;font-stretch:normal;font-size:142.558px;line-height:100%;font-family:Roboto;-inkscape-font-specification:&quot;Roboto Heavy&quot;;text-align:center;text-anchor:middle;fill:#000;stroke-width:3.20748px" transform="matrix(.3118 0 0 .31173 -24.457 -91.229)"/></g><path d="M32 .75A31.25 31.25 0 0 0 .75 32 31.25 31.25 0 0 0 32 63.25 31.25 31.25 0 0 0 63.25 32 31.25 31.25 0 0 0 32 .75Zm0 5A26.25 26.25 0 0 1 58.25 32 26.25 26.25 0 0 1 32 58.25 26.25 26.25 0 0 1 5.75 32 26.25 26.25 0 0 1 32 5.75Z" style="fill:#000"/><g style="font-size:40px;line-height:1.25"><path d="M27.775 45.836h5.551v6.945h-5.55zm5.387-4.02H27.94v-4.21q0-2.762.766-4.54.766-1.777 3.227-4.129l2.46-2.433q1.56-1.45 2.243-2.734.71-1.286.71-2.625 0-2.434-1.804-3.938-1.777-1.504-4.73-1.504-2.16 0-4.622.957-2.433.957-5.085 2.79v-5.141q2.57-1.559 5.195-2.325 2.652-.765 5.469-.765 5.03 0 8.066 2.652 3.062 2.652 3.062 7 0 2.078-.984 3.965-.984 1.86-3.445 4.21l-2.406 2.352q-1.286 1.286-1.832 2.024-.52.71-.739 1.394-.164.575-.246 1.395-.082.82-.082 2.242z" aria-label="?" style="font-size:56px;-inkscape-font-specification:&quot;sans-serif, Normal&quot;"/></g></g></svg>