<?xml version="1.0" encoding="UTF-8" standalone="no"?>
<svg
   width="64"
   height="64"
   viewBox="0 0 64 64"
   version="1.1"
   id="svg10"
   sodipodi:docname="question.svg"
   inkscape:version="1.1.2 (0a00cf5339, 2022-02-04)"
   xmlns:inkscape="http://www.inkscape.org/namespaces/inkscape"
   xmlns:sodipodi="http://sodipodi.sourceforge.net/DTD/sodipodi-0.dtd"
   xmlns="http://www.w3.org/2000/svg"
   xmlns:svg="http://www.w3.org/2000/svg">
  <defs
     id="defs14" />
  <sodipodi:namedview
     id="namedview12"
     pagecolor="#ffffff"
     bordercolor="#666666"
     borderopacity="1.0"
     inkscape:pageshadow="2"
     inkscape:pageopacity="0.0"
     inkscape:pagecheckerboard="0"
     showgrid="false"
     inkscape:zoom="8"
     inkscape:cx="38.5625"
     inkscape:cy="31.0625"
     inkscape:window-width="2048"
     inkscape:window-height="1025"
     inkscape:window-x="0"
     inkscape:window-y="28"
     inkscape:window-maximized="1"
     inkscape:current-layer="g8" />
  <g
     style="stroke-width:1.04766"
     id="g8">
    <g
       style="font-style:normal;font-weight:400;font-size:142.558px;line-height:100%;font-family:Sans;letter-spacing:0;word-spacing:0;fill:#000000;fill-opacity:1;stroke:none;stroke-width:3.20748px;stroke-linecap:butt;stroke-linejoin:miter;stroke-opacity:1"
       id="g6">
      <path
         d="m 169.301,354.693 c -60.57527,-41.3594 -30.28763,-20.6797 0,0 z m -0.627,90.839 c -60.15727,-101.91873 -30.07863,-50.95937 0,0 z"
         style="font-style:normal;font-variant:normal;font-weight:900;font-stretch:normal;font-size:142.558px;line-height:100%;font-family:Roboto;-inkscape-font-specification:'Roboto Heavy';text-align:center;text-anchor:middle;fill:#000000;stroke-width:3.20748px"
         transform="matrix(0.3118,0,0,0.31173,-24.457,-91.229)"
         aria-label="!"
         id="path4"
         sodipodi:nodetypes="cccc" />
    </g>
    <path
       id="path2540"
       style="fill:#000000"
       d="M 32,0.75 A 31.25,31.25 0 0 0 0.75,32 31.25,31.25 0 0 0 32,63.25 31.25,31.25 0 0 0 63.25,32 31.25,31.25 0 0 0 32,0.75 Z m 0,5 A 26.25,26.25 0 0 1 58.25,32 26.25,26.25 0 0 1 32,58.25 26.25,26.25 0 0 1 5.75,32 26.25,26.25 0 0 1 32,5.75 Z" />
    <text
       xml:space="preserve"
       style="font-style:normal;font-weight:normal;font-size:40px;line-height:1.25;font-family:sans-serif;fill:#000000;fill-opacity:1;stroke:none"
       x="17.083984"
       y="52.78125"
       id="text4900"><tspan
         id="tspan4898"
         x="17.083984"
         y="52.78125"
         sodipodi:role="line"
         style="font-style:normal;font-variant:normal;font-weight:normal;font-stretch:normal;font-size:56px;font-family:sans-serif;-inkscape-font-specification:'sans-serif, Normal';font-variant-ligatures:normal;font-variant-caps:normal;font-variant-numeric:normal;font-variant-east-asian:normal">?</tspan></text>
  </g>
</svg>
