<svg xmlns="http://www.w3.org/2000/svg" width="288" height="288" viewBox="0 0 288 288"><g style="stroke-width:1.04766428"><path d="M180.197 312.633c-5.446.289-10.654 3.481-13.379 8.203L90.285 453.334c-2.868 4.967-2.87 11.463-.002 16.431 2.867 4.968 8.494 8.22 14.232 8.226h153.099c5.739-.006 11.365-3.258 14.232-8.226 2.868-4.968 2.867-11.464-.002-16.431l-76.533-132.498a16.545 16.545 0 0 0-6.399-6.233 16.557 16.557 0 0 0-8.715-1.97z" style="color:#000;font-style:normal;font-variant:normal;font-weight:400;font-stretch:normal;font-size:medium;line-height:normal;font-family:Sans;-inkscape-font-specification:Sans;text-indent:0;text-align:start;text-decoration:none;text-decoration-line:none;letter-spacing:normal;word-spacing:normal;text-transform:none;writing-mode:lr-tb;direction:ltr;baseline-shift:baseline;text-anchor:start;display:inline;overflow:visible;visibility:visible;fill:none;fill-opacity:1;stroke:#fff;stroke-width:19.24487495;stroke-miterlimit:4;stroke-dasharray:none;stroke-opacity:1;marker:none;enable-background:accumulate" transform="matrix(1.40314 0 0 1.4028 -110.06 -410.53)"/><g style="font-style:normal;font-weight:400;font-size:142.55773926px;line-height:100%;font-family:Sans;letter-spacing:0;word-spacing:0;fill:#fff;fill-opacity:1;stroke:none;stroke-width:3.207479px;stroke-linecap:butt;stroke-linejoin:miter;stroke-opacity:1"><path d="m194.36 354.693-2.993 69.26h-19.073l-2.993-69.26zm-25.686 90.84q0-5.013 3.62-8.354 3.62-3.41 9.397-3.41 5.778 0 9.328 3.41 3.62 3.341 3.62 8.353t-3.62 8.423q-3.55 3.341-9.328 3.341-5.777 0-9.397-3.341-3.62-3.411-3.62-8.423z" style="font-style:normal;font-variant:normal;font-weight:900;font-stretch:normal;font-size:142.55773926px;line-height:100%;font-family:Roboto;-inkscape-font-specification:'Roboto Heavy';text-align:center;text-anchor:middle;fill:#fff;stroke-width:3.207479px" transform="matrix(1.40314 0 0 1.4028 -110.06 -410.53)" aria-label="!"/></g></g></svg>